<svg width="515" height="170" viewBox="0 0 515 170" fill="none" xmlns="http://www.w3.org/2000/svg">
<path d="M35.4456 133.752C28.7069 133.752 22.7768 132.494 17.6554 129.978C12.534 127.463 8.22121 124.138 4.71709 120.005L13.3426 111.245C16.8467 114.929 20.4407 117.624 24.1245 119.331C27.8084 121.038 31.7617 121.892 35.9847 121.892C41.8249 121.892 46.4072 120.499 49.7316 117.714C53.056 114.839 54.7182 111.155 54.7182 106.662C54.7182 103.338 53.8197 100.643 52.0228 98.576C50.3156 96.5095 48.0245 94.8473 45.1493 93.5894C42.364 92.3315 39.2642 91.2084 35.8499 90.2201C32.4356 89.2317 29.0213 88.1985 25.6071 87.1203C22.1928 85.9522 19.0481 84.4697 16.1729 82.6727C13.3875 80.7859 11.0964 78.36 9.29941 75.3949C7.59227 72.34 6.7387 68.5215 6.7387 63.9391C6.7387 58.1888 8.04151 53.2471 10.6471 49.114C13.3426 44.8911 17.1163 41.6565 21.9682 39.4103C26.82 37.0742 32.4805 35.9061 38.9497 35.9061C44.7899 35.9061 50.0461 36.9394 54.7182 39.0059C59.4803 40.9826 63.3438 43.6781 66.3088 47.0924L57.4137 56.1222C54.7182 53.3369 51.888 51.2704 48.923 49.9226C45.9579 48.4851 42.5886 47.7663 38.8149 47.7663C33.3341 47.7663 28.9315 49.1589 25.6071 51.9442C22.2826 54.6397 20.6204 58.1888 20.6204 62.5914C20.6204 65.7361 21.474 68.2968 23.1811 70.2735C24.9781 72.1603 27.3142 73.6429 30.1894 74.7211C33.0646 75.7992 36.2093 76.7876 39.6236 77.6861C43.1277 78.5846 46.5869 79.6178 50.0012 80.7859C53.5053 81.8641 56.65 83.3466 59.4353 85.2334C62.3105 87.1203 64.6017 89.636 66.3088 92.7808C68.1058 95.8356 69.0043 99.789 69.0043 104.641C69.0043 110.571 67.5667 115.737 64.6915 120.14C61.9062 124.453 57.9977 127.822 52.9662 130.248C47.9346 132.584 42.0944 133.752 35.4456 133.752ZM79.2303 132V33.615H91.899V84.5596H88.3949C89.3832 80.696 90.7759 77.5513 92.5729 75.1254C94.3699 72.6096 96.4364 70.6778 98.7725 69.3301C101.109 67.8925 103.49 66.9042 105.916 66.3651C108.341 65.7361 110.543 65.4216 112.519 65.4216C119.887 65.4216 125.817 67.8027 130.31 72.5647C134.802 77.3267 137.048 84.29 137.048 93.4546V132H123.84V95.4762C123.84 89.0969 122.448 84.5146 119.662 81.7293C116.967 78.944 113.418 77.5513 109.015 77.5513C105.96 77.5513 103.175 78.2252 100.659 79.5729C98.1435 80.9207 96.1219 82.9423 94.5945 85.6377C93.1569 88.3332 92.4381 91.7026 92.4381 95.7458V132H79.2303ZM155.596 132V72.1603L161.526 78.0904H143.466V66.7694H168.938V132H155.596ZM155.056 53.1572V36.3105H169.747V53.1572H155.056ZM212.51 133.348C206.041 133.348 200.336 131.955 195.394 129.17C190.452 126.295 186.589 122.341 183.803 117.31C181.108 112.278 179.76 106.438 179.76 99.789V98.4413C179.76 92.1518 181.018 86.5362 183.534 81.5945C186.139 76.6528 189.733 72.7444 194.316 69.8692C198.988 66.9042 204.379 65.4216 210.489 65.4216C216.958 65.4216 222.438 66.994 226.931 70.1387C231.513 73.2835 234.838 77.6861 236.904 83.3466C239.061 89.0071 239.645 95.7009 238.656 103.428H189.194V93.4546H231.648L225.853 98.576C226.482 93.9937 226.212 90.0404 225.044 86.7159C223.876 83.3915 222.034 80.8757 219.518 79.1686C217.003 77.3716 214.038 76.4731 210.623 76.4731C206.85 76.4731 203.615 77.4165 200.92 79.3034C198.314 81.1902 196.292 83.7509 194.855 86.9855C193.507 90.2201 192.833 94.0387 192.833 98.4413V101.272C192.833 105.045 193.642 108.504 195.259 111.649C196.876 114.704 199.212 117.13 202.267 118.927C205.322 120.724 208.961 121.622 213.184 121.622C216.508 121.622 219.429 121.218 221.944 120.409C224.46 119.511 226.661 118.163 228.548 116.366L235.961 124.318C233.445 127.283 230.166 129.529 226.122 131.057C222.079 132.584 217.542 133.348 212.51 133.348ZM267.717 132C262.146 132 257.654 130.473 254.24 127.418C250.915 124.273 249.253 120.005 249.253 114.614V39.0059L255.183 44.936H237.797V33.615H262.461V114.884C262.461 116.591 263.045 118.028 264.213 119.196C265.381 120.365 266.818 120.949 268.526 120.949H274.995V132H267.717ZM308.616 133.348C302.686 133.348 297.384 131.955 292.712 129.17C288.13 126.384 284.491 122.476 281.796 117.444C279.19 112.413 277.887 106.573 277.887 99.9238V98.576C277.887 92.017 279.235 86.2667 281.93 81.325C284.626 76.2934 288.31 72.385 292.982 69.5996C297.654 66.8143 302.91 65.4216 308.75 65.4216C314.051 65.4216 318.724 66.7245 322.767 69.3301C326.9 71.8459 330.135 75.2601 332.471 79.5729L329.91 82.6727V33.615H343.118V132H331.123V114.884L333.684 117.579C331.168 122.521 327.753 126.384 323.441 129.17C319.128 131.955 314.186 133.348 308.616 133.348ZM310.637 121.757C314.501 121.757 317.915 120.859 320.88 119.062C323.935 117.175 326.316 114.569 328.023 111.245C329.82 107.92 330.719 103.967 330.719 99.3847C330.719 94.8024 329.82 90.849 328.023 87.5246C326.316 84.2002 323.935 81.6395 320.88 79.8425C317.915 78.0455 314.501 77.147 310.637 77.147C306.953 77.147 303.629 78.0455 300.664 79.8425C297.699 81.5496 295.363 84.0205 293.656 87.255C291.949 90.3998 291.095 94.1734 291.095 98.576V99.9238C291.095 104.326 291.949 108.19 293.656 111.514C295.363 114.749 297.699 117.265 300.664 119.062C303.629 120.859 306.953 121.757 310.637 121.757Z" fill="white"/>
<path d="M399.78 127.544H385.629V116.544H399.78V127.544ZM399.78 102.544H385.629V88.5442H399.78V102.544ZM399.78 74.5442H385.629V60.5442H399.78V74.5442ZM427.656 46.428H399.78V46.5442H385.629V46.428H358.113L358 33.2024H427.544L427.656 46.428Z" fill="white"/>
<path d="M446.809 127.544H430.771L438.124 116.544H454.312L446.809 127.544ZM514.196 127.544H498.158L490.693 116.544H506.843L514.196 127.544ZM497.482 102.544H481.193L472.551 89.8079L463.862 102.544H447.484L456.844 88.5442H488.123L497.482 102.544ZM485.985 74.5442H458.981L449.702 60.5442H466.354L472.551 69.9954L478.748 60.5442H495.265L485.985 74.5442ZM457.174 46.5442H440.423L431.579 33.2024H448.426L457.174 46.5442ZM504.544 46.5442H487.927L496.675 33.2024H513.388L504.544 46.5442Z" fill="white"/>
</svg>
